<svg viewBox="0 0 949 256" xmlns="http://www.w3.org/2000/svg" fill-rule="evenodd" clip-rule="evenodd"><path d="M74.5 254.663L0 128.001 74.5 1.338h148.999l74.5 126.663-74.5 126.662h-149z" fill="#2c6bbe" fill-rule="nonzero"/><path d="M47.784 209.274l202.43.011-13.32 22.515H61.05l-13.265-22.526zM84.191 24.504l40.836.088-60.373 103.342 41.021 69.831-40.834-.088-41.021-69.83L84.19 24.503z" fill="#fff" fill-rule="nonzero"/><path d="M195.647 216.464l69.533.153-102.8 179.268 69.849 121.135-69.532-.152-69.849-121.136 102.799-179.268z" stroke="#2c6bbe" stroke-width="8" fill="none" transform="matrix(.58728 0 0 .57647 -30.708 -100.281)"/><path d="M124.65 24.405l40.834.088-60.372 103.343 41.02 69.83-40.834-.088-41.02-69.83L124.65 24.405z" fill="#fff" fill-rule="nonzero"/><path d="M264.538 216.293l69.532.153-102.8 179.268 69.849 121.135-69.532-.153-69.849-121.135 102.8-179.268z" stroke="#2c6bbe" stroke-width="8" fill="none" transform="matrix(.58728 0 0 .57647 -30.708 -100.281)"/><path d="M114.645 162.954l75.942.008-41.727 71.425h45.018l63.389-106.098h-38.87l18.4-34.693-18.403-30.36H132.63L95.957 128.29l18.688 34.663z" fill="#fff" fill-rule="nonzero"/><path d="M247.503 456.634l129.311.014-71.052 123.901h76.656L490.355 396.5h-66.188l31.333-60.181-31.337-52.667H278.126l-62.445 112.852 31.822 60.13z" stroke="#2c6bbe" stroke-width="8" fill="none" transform="matrix(.58728 0 0 .57647 -30.708 -100.281)"/><path d="M156.213 93.402h41.445l-20.145 34.692h-41.445l20.145-34.692z" fill="#2c6bbe" fill-rule="nonzero"/><g><path d="M190.587 24.498h27.009l48.185 80.892h-27.009l-48.185-80.892z" fill="#fff" fill-rule="nonzero"/><path d="M376.814 216.455h45.99l82.048 140.323h-45.989l-82.049-140.323z" stroke="#000" fill="none" transform="matrix(.58728 0 0 .57647 -30.708 -100.281)"/></g><g><path d="M425.167 283.652l31.333 52.667s-30.667-52.667-31.333-52.667z" stroke="#000" fill="none" transform="matrix(.58728 0 0 .57647 -30.708 -100.281)"/></g><g><path d="M190.587 24.498h27.009l48.185 80.892h-27.009l-48.185-80.892z" fill="#fff" fill-rule="nonzero"/><path d="M376.814 216.455h45.99l82.048 140.323h-45.989l-82.049-140.323z" stroke="#2c6bbe" stroke-width="8" fill="none" transform="matrix(.58728 0 0 .57647 -30.708 -100.281)"/></g><g><text x="346.211" y="105.981" font-family="'NotoSansCJKjp-Black','Noto Sans CJK JP',sans-serif" font-weight="900" font-size="144" fill="#3a5880" transform="matrix(.88583 0 0 1.19707 -10.722 68.518)">コ</text><text x="501.305" y="105.981" font-family="'NotoSansCJKjp-Black','Noto Sans CJK JP',sans-serif" font-weight="900" font-size="144" fill="#3a5880" transform="matrix(.88583 0 0 1.19707 -37.132 68.518)">ノ</text><text x="637.681" y="105.981" font-family="'NotoSansCJKjp-Black','Noto Sans CJK JP',sans-serif" font-weight="900" font-size="144" fill="#3a5880" transform="matrix(.88583 0 0 1.19707 -60.355 68.518)">イ</text><text x="758.012" y="105.981" font-family="'NotoSansCJKjp-Black','Noto Sans CJK JP',sans-serif" font-weight="900" font-size="144" fill="#3a5880" transform="matrix(.88583 0 0 1.19707 -80.846 68.518)">ト</text><text x="913.998" y="105.981" font-family="'NotoSansCJKjp-Black','Noto Sans CJK JP',sans-serif" font-weight="900" font-size="144" fill="#3a5880" transform="matrix(.88583 0 0 1.19707 -107.407 68.518)">シ</text><text x="1081.57" y="105.981" font-family="'NotoSansCJKjp-Black','Noto Sans CJK JP',sans-serif" font-weight="900" font-size="144" fill="#3a5880" transform="matrix(.88583 0 0 1.19707 -135.943 68.518)">キ</text></g></svg>