<?xml version="1.0" encoding="UTF-8" standalone="no"?>
<!DOCTYPE svg PUBLIC "-//W3C//DTD SVG 1.1//EN" "http://www.w3.org/Graphics/SVG/1.1/DTD/svg11.dtd">
<svg width="100%" height="100%" viewBox="0 0 949 256" version="1.1" xmlns="http://www.w3.org/2000/svg" xmlns:xlink="http://www.w3.org/1999/xlink" xml:space="preserve" xmlns:serif="http://www.serif.com/" style="fill-rule:evenodd;clip-rule:evenodd;">
    <g transform="matrix(1.73546,0,0,1.70352,-90.7439,-298.956)">
        <g transform="matrix(0.338399,0,0,0.338399,34.5938,116.626)">
            <path d="M179.144,615.721L52.288,396L179.144,176.279L432.856,176.279L559.712,396L432.856,615.721L179.144,615.721Z" style="fill:rgb(44,107,190);fill-rule:nonzero;"/>
        </g>
        <g transform="matrix(0.338399,0,0,0.338399,34.5938,116.626)">
            <path d="M133.654,536.985L478.346,537.004L455.666,576.06L156.241,576.06L133.654,536.985Z" style="fill:white;fill-rule:nonzero;"/>
        </g>
        <g transform="matrix(0.338399,0,0,0.338399,34.5938,116.626)">
            <path d="M195.647,216.464L265.18,216.617L162.38,395.885L232.229,517.02L162.697,516.868L92.848,395.732L195.647,216.464Z" style="fill:white;fill-rule:nonzero;"/>
            <path d="M195.647,216.464L265.18,216.617L162.38,395.885L232.229,517.02L162.697,516.868L92.848,395.732L195.647,216.464Z" style="fill-opacity:0;fill-rule:nonzero;stroke:rgb(44,107,190);stroke-width:8px;"/>
        </g>
        <g transform="matrix(0.338399,0,0,0.338399,34.5938,116.626)">
            <path d="M264.538,216.293L334.07,216.446L231.27,395.714L301.119,516.849L231.587,516.696L161.738,395.561L264.538,216.293Z" style="fill:white;fill-rule:nonzero;"/>
            <path d="M264.538,216.293L334.07,216.446L231.27,395.714L301.119,516.849L231.587,516.696L161.738,395.561L264.538,216.293Z" style="fill-opacity:0;fill-rule:nonzero;stroke:rgb(44,107,190);stroke-width:8px;"/>
        </g>
        <g transform="matrix(0.338399,0,0,0.338399,34.5938,116.626)">
            <path d="M247.503,456.634L376.814,456.648L305.762,580.549L382.418,580.549L490.355,396.5L424.167,396.5L455.5,336.319L424.163,283.652L278.126,283.652L215.681,396.504L247.503,456.634Z" style="fill:white;fill-rule:nonzero;"/>
            <path d="M247.503,456.634L376.814,456.648L305.762,580.549L382.418,580.549L490.355,396.5L424.167,396.5L455.5,336.319L424.163,283.652L278.126,283.652L215.681,396.504L247.503,456.634Z" style="fill-opacity:0;fill-rule:nonzero;stroke:rgb(44,107,190);stroke-width:8px;"/>
        </g>
        <g transform="matrix(0.338399,0,0,0.338399,34.5938,116.626)">
            <path d="M318.284,335.981L388.855,335.981L354.552,396.162L283.981,396.162L318.284,335.981Z" style="fill:rgb(44,107,190);fill-rule:nonzero;"/>
        </g>
        <g transform="matrix(0.338399,0,0,0.338399,34.5938,116.626)">
            <path d="M376.814,216.455L422.804,216.455L504.852,356.778L458.863,356.778L376.814,216.455Z" style="fill:white;fill-rule:nonzero;"/>
            <path d="M376.814,216.455L422.804,216.455L504.852,356.778L458.863,356.778L376.814,216.455Z" style="fill-opacity:0;fill-rule:nonzero;stroke:black;stroke-width:1px;"/>
        </g>
        <g transform="matrix(0.338399,0,0,0.338399,34.5938,116.626)">
            <path d="M425.167,283.652L456.5,336.319C456.5,336.319 425.833,283.652 425.167,283.652Z" style="fill-opacity:0;fill-rule:nonzero;stroke:black;stroke-width:1px;"/>
        </g>
        <g transform="matrix(0.338399,0,0,0.338399,34.5938,116.626)">
            <path d="M376.814,216.455L422.804,216.455L504.852,356.778L458.863,356.778L376.814,216.455Z" style="fill:white;fill-rule:nonzero;"/>
            <path d="M376.814,216.455L422.804,216.455L504.852,356.778L458.863,356.778L376.814,216.455Z" style="fill-opacity:0;fill-rule:nonzero;stroke:rgb(44,107,190);stroke-width:8px;"/>
        </g>
    </g>
    <g transform="matrix(0.715548,0,0,1.19707,48.2329,68.5181)">
        <g transform="matrix(1.23798,0,0,1,-82.391,0)">
            <text x="346.211px" y="105.981px" style="font-family:'NotoSansCJKjp-Black', 'Noto Sans CJK JP', sans-serif;font-weight:900;font-size:144px;fill:rgb(58,88,128);">コ</text>
        </g>
        <g transform="matrix(1.23798,0,0,1,-119.3,0)">
            <text x="501.305px" y="105.981px" style="font-family:'NotoSansCJKjp-Black', 'Noto Sans CJK JP', sans-serif;font-weight:900;font-size:144px;fill:rgb(58,88,128);">ノ</text>
        </g>
        <g transform="matrix(1.23798,0,0,1,-151.755,0)">
            <text x="637.681px" y="105.981px" style="font-family:'NotoSansCJKjp-Black', 'Noto Sans CJK JP', sans-serif;font-weight:900;font-size:144px;fill:rgb(58,88,128);">イ</text>
        </g>
        <g transform="matrix(1.23798,0,0,1,-180.391,0)">
            <text x="758.012px" y="105.981px" style="font-family:'NotoSansCJKjp-Black', 'Noto Sans CJK JP', sans-serif;font-weight:900;font-size:144px;fill:rgb(58,88,128);">ト</text>
        </g>
        <g transform="matrix(1.23798,0,0,1,-217.512,0)">
            <text x="913.998px" y="105.981px" style="font-family:'NotoSansCJKjp-Black', 'Noto Sans CJK JP', sans-serif;font-weight:900;font-size:144px;fill:rgb(58,88,128);">シ</text>
        </g>
        <g transform="matrix(1.23798,0,0,1,-257.391,0)">
            <text x="1081.57px" y="105.981px" style="font-family:'NotoSansCJKjp-Black', 'Noto Sans CJK JP', sans-serif;font-weight:900;font-size:144px;fill:rgb(58,88,128);">キ</text>
        </g>
    </g>
</svg>
